<svg xmlns="http://www.w3.org/2000/svg" viewBox="20 640 2000 780" fill="none" preserveAspectRatio="xMidYMid meet">
<path transform="translate(0,0)" fill="rgb(149,104,246)" d="M 1398.96 685.559 C 1415.91 682.71 1451.1 684.695 1469.89 684.7 L 1619.43 684.727 L 1809.43 684.739 C 1835.02 684.72 1887.5 683.232 1910.25 686.191 C 1930.29 688.994 1949.32 696.735 1965.63 708.718 C 2024.43 751.273 2015.11 813.362 2015.1 876.623 L 2015.11 1049.2 L 2015.16 1203.36 C 2015.19 1227.99 2015.96 1258.07 2014.15 1282.26 C 2012.99 1297.86 2001.18 1324.16 1991.33 1336.79 C 1967.82 1366.9 1940.9 1380.42 1903.92 1385.94 C 1788.7 1387.16 1671.72 1386.03 1556.38 1386.1 L 1452.78 1386.17 C 1405.29 1386.2 1372.85 1390.49 1333.52 1358.97 C 1286.94 1321.63 1285.79 1275.01 1287.56 1220.16 C 1287.93 1208.75 1287.6 1195.97 1287.61 1184.49 L 1287.63 1011.76 L 1287.54 867.685 C 1287.48 817.819 1280.63 771.516 1314.79 730.321 C 1335.83 704.873 1366.09 688.782 1398.96 685.559 z"/>
<path transform="translate(0,0)" fill="rgb(69,57,173)" d="M 1460.54 1174.72 C 1485.02 1172.14 1509 1182.91 1523.34 1202.92 C 1537.68 1222.93 1540.17 1249.1 1529.85 1271.45 C 1519.54 1293.8 1498.01 1308.89 1473.48 1310.97 C 1436.09 1314.12 1403.14 1286.6 1399.59 1249.25 C 1396.04 1211.9 1423.23 1178.66 1460.54 1174.72 z"/>
<path transform="translate(0,0)" fill="rgb(69,57,173)" d="M 1454.84 793.369 C 1491.99 786.379 1527.74 810.927 1534.55 848.105 C 1541.37 885.284 1516.65 920.916 1479.44 927.555 C 1442.48 934.15 1407.14 909.634 1400.37 872.703 C 1393.6 835.772 1417.95 800.313 1454.84 793.369 z"/>
<path transform="translate(0,0)" fill="rgb(69,57,173)" d="M 1460.13 984.78 C 1497.59 980.616 1531.3 1007.71 1535.28 1045.2 C 1539.26 1082.68 1512 1116.25 1474.49 1120.05 C 1437.25 1123.82 1403.96 1096.79 1400 1059.56 C 1396.05 1022.34 1422.92 988.915 1460.13 984.78 z"/>
<path transform="translate(0,0)" fill="rgb(69,57,173)" d="M 1603.84 845.156 C 1625.16 843.842 1652.49 844.65 1674.38 844.675 L 1797.98 844.734 L 1867.68 844.684 C 1879.65 844.682 1893.18 844.204 1905.01 845.695 C 1909.02 846.376 1911.84 849.769 1913.79 853.01 C 1920.52 864.172 1913.87 873.884 1903.54 878.806 C 1884.92 880.513 1856.67 879.559 1837.3 879.55 L 1718.91 879.573 L 1644.55 879.59 C 1632.66 879.595 1602.16 882.9 1595.73 871.518 C 1590.04 861.445 1594.14 851.207 1603.84 845.156 z"/>
<path transform="translate(0,0)" fill="rgb(69,57,173)" d="M 1606.92 1036.24 C 1624.49 1035.34 1648.9 1036 1667 1036 L 1782.61 1035.96 L 1860.69 1035.96 C 1869.59 1035.96 1878.42 1035.9 1887.43 1036.01 C 1896.47 1036.32 1910.19 1034.65 1914.33 1045.41 C 1918.76 1056.92 1913.52 1065.39 1902.76 1069.43 C 1892.76 1070.32 1875.06 1069.79 1864.41 1069.79 L 1796.87 1069.85 C 1736.42 1069.89 1675.95 1070.05 1615.5 1069.78 C 1607 1069.89 1596.53 1069.06 1594.2 1058.93 C 1591.52 1047.26 1595.6 1039.25 1606.92 1036.24 z"/>
<path transform="translate(0,0)" fill="rgb(69,57,173)" d="M 1606.51 1229.31 C 1623.74 1228.34 1648.18 1229.04 1665.82 1229.03 L 1777.83 1229.02 L 1859.61 1229.03 C 1874.51 1229.03 1890.47 1228.4 1905.23 1230.57 C 1908.54 1231.44 1913.17 1234.72 1914.38 1237.99 C 1918.94 1250.38 1913.54 1257.43 1902.98 1262.02 C 1887.46 1263.7 1860.51 1262.9 1843.97 1262.89 L 1740.48 1262.8 L 1652.19 1262.89 C 1639.52 1262.9 1613.95 1263.6 1602.45 1261.71 C 1589.58 1250.78 1589.71 1235.41 1606.51 1229.31 z"/>
<path transform="translate(0,0)" fill="rgb(149,104,246)" d="M 995.906 854.092 C 996.736 854.03 1000.56 853.772 1001.07 853.924 C 1016.43 858.463 1044.58 882.468 1055.76 890.908 C 1084.12 912.605 1112.6 934.146 1141.2 955.531 L 1200.48 1000.24 C 1207.79 1005.78 1233.73 1021.91 1229 1033.15 C 1224.07 1044.88 1203.09 1059.24 1192.95 1067.47 L 1145.35 1106.51 L 1067.29 1170.34 C 1049.71 1184.74 1030.91 1201.01 1012.65 1214.21 C 966.926 1239.22 999.336 1141.84 980.606 1131.54 C 974.852 1128.38 947.099 1129.42 940.026 1129.43 L 844.285 1129.63 C 830.953 1129.65 797.442 1132.21 787.446 1124.95 C 785.512 1121.29 784.113 1113.02 784.156 1108.7 C 784.709 1053.62 782.249 997.658 785.652 942.757 C 786.519 928.766 808.204 931.741 818.234 931.493 C 825.553 931.311 834.376 931.611 842.174 931.667 L 928.314 931.801 C 937.771 931.814 973.982 933.913 983.164 928.679 C 988.776 923.533 986.391 909.899 986.961 904.397 C 988.738 887.255 979.947 864.966 995.906 854.092 z"/>
<path transform="translate(0,0)" fill="rgb(198,158,253)" d="M 249.782 1003.11 C 234.869 988.272 194.928 955.536 192.344 936.906 C 194.181 931.45 197.398 927.033 201.305 922.835 C 217.822 905.084 238.197 889.449 256.366 873.306 C 276.184 855.699 295.269 836.775 315.65 819.908 C 319.316 816.874 323.443 813.857 327.762 811.823 C 331.541 810.045 334.274 810.114 338.153 811.577 C 341.055 812.671 343.808 814.11 346.253 816.025 C 362.457 828.717 377.323 843.768 392.694 857.498 C 413.953 876.488 436.813 895.289 456.612 915.752 C 458.965 918.184 461.109 920.55 462.354 923.75 C 464.019 928.027 463.936 933.941 461.915 938.078 C 454.768 952.714 370.918 1020.99 354.503 1033.47 C 357.445 1040.1 360.56 1056.21 362.321 1063.96 L 374.452 1116.68 L 387.39 1170.66 C 388.737 1176.27 389.973 1181.95 391.396 1187.64 C 393.759 1197.08 397.828 1214.76 382.706 1215.18 C 369.689 1215.55 356.939 1211.28 344.361 1208.1 C 308.451 1199.02 272.716 1188.92 237.002 1179.09 C 206.035 1170.5 174.477 1163.59 143.92 1153.64 C 139.612 1152.01 134.46 1150 131.235 1146.58 C 118.986 1133.59 132.567 1119.95 141.392 1111.06 C 164.563 1087.7 187.352 1064.89 210.581 1041.73 C 223.52 1028.82 236.297 1015.23 249.782 1003.11 z"/>
<path transform="translate(0,0)" fill="rgb(149,104,246)" d="M 249.782 1003.11 C 234.869 988.272 194.928 955.536 192.344 936.906 C 194.181 931.45 197.398 927.033 201.305 922.835 C 217.822 905.084 238.197 889.449 256.366 873.306 C 276.184 855.699 295.269 836.775 315.65 819.908 C 319.316 816.874 323.443 813.857 327.762 811.823 C 331.541 810.045 334.274 810.114 338.153 811.577 C 341.055 812.671 343.808 814.11 346.253 816.025 C 362.457 828.717 377.323 843.768 392.694 857.498 C 413.953 876.488 436.813 895.289 456.612 915.752 C 458.965 918.184 461.109 920.55 462.354 923.75 C 464.019 928.027 463.936 933.941 461.915 938.078 C 454.768 952.714 370.918 1020.99 354.503 1033.47 C 348.895 1013.67 345.21 993.255 340.14 973.281 C 337.669 963.545 335.064 938.351 322.338 937.301 C 313.28 937.033 303.998 950.094 297.779 955.493 C 282.151 969.062 265.7 990.793 249.782 1003.11 z"/>
<path transform="translate(0,0)" fill="rgb(149,104,246)" d="M 520.048 1051.06 C 523.32 1050.92 526.31 1050.89 529.379 1052.19 C 532.466 1053.5 534.938 1055.79 537.257 1058.15 C 551.777 1072.94 645.641 1182.88 649.608 1194.34 C 651.074 1198.57 648.875 1205.66 647.643 1209.78 C 641.185 1231.34 631.121 1252.14 622.918 1273.12 C 617.024 1288.19 612.524 1306.27 604.448 1320.24 C 601.919 1324.62 599.45 1327.62 594.862 1329.77 C 577.847 1337.76 551.252 1341.61 532.388 1345.9 C 506.348 1351.72 480.417 1358.03 454.608 1364.8 C 442.561 1367.44 436.027 1369.24 423.614 1369.72 C 410.784 1361.04 405.927 1346.67 399.037 1333.29 L 373.032 1282.76 C 368.464 1273.77 355.842 1252.91 360.667 1242.89 C 361.854 1240.43 363.146 1239.16 365.721 1238.31 C 371.885 1236.27 379.982 1237.11 386.408 1237.04 C 401.861 1236.87 420.876 1236.51 435.447 1231.09 C 438.741 1229.86 443.127 1227.71 444.452 1224.17 C 450.737 1207.38 410.854 1117.45 419.032 1101.44 C 423.463 1092.76 507.093 1055.21 520.048 1051.06 z"/>
<path transform="translate(0,0)" fill="rgb(198,158,253)" d="M 456.448 658.955 C 464.597 658.298 493.064 674.429 501.889 678.924 L 566.543 711.852 C 588.249 722.881 610.908 733.495 631.92 745.777 C 641.899 751.61 640.472 763.281 636.424 772.609 C 622.553 804.575 607.592 836.348 592.962 867.996 C 587.434 879.846 581.354 894.814 573.407 904.843 C 564.365 912.713 554.888 912.511 543.632 908.89 C 524.226 902.362 505.333 894.495 486.926 885.338 C 464.54 874.201 447.962 850.8 429.54 834.235 C 420.026 825.68 410.175 814.999 401.967 805.362 C 394.902 797.067 391.156 787.246 395.806 776.859 C 411.864 740.51 427.399 703.048 445.752 667.851 C 448.098 663.352 452.135 661.15 456.448 658.955 z"/>
<path transform="translate(0,0)" fill="rgb(198,158,253)" d="M 656.428 882.103 C 662.613 881.69 672.959 883.801 673.853 891.439 C 678.049 927.283 676.511 964.213 677.854 1000.32 C 678.685 1022.64 679.915 1044.95 679.623 1067.29 C 679.433 1080.14 677.37 1083.66 665.509 1087.09 C 650.441 1083.97 633.132 1075.42 618.7 1069.15 L 563.753 1045.42 C 547.499 1037.57 507.97 1025.9 497.561 1011.66 C 487.663 998.124 520.631 977.87 530.5 970.577 C 545.67 959.341 560.915 948.205 576.233 937.17 C 595.259 923.417 637.212 891.021 656.428 882.103 z"/>
<path transform="translate(0,0)" fill="rgb(198,158,253)" d="M 62.5318 771.155 C 84.6066 770.061 131.455 790.604 154.638 797.014 C 169.407 801.098 195.697 810.49 209.449 816.468 C 230.306 843.793 185.265 874.117 166.641 891.755 C 152.407 905.935 137.243 921.526 119.423 931.175 L 118.391 930.971 C 112.359 929.745 106.352 928.119 103.231 922.201 C 92.3054 901.489 84.4842 876.648 76.3927 854.519 C 69.1543 833.192 60.2893 812.195 54.7376 790.346 C 52.3129 780.803 54.6412 776.228 62.5318 771.155 z"/>
<path transform="translate(0,0)" fill="rgb(198,158,253)" d="M 136.107 1214.45 C 151.008 1213.64 172.826 1211.17 172.663 1233.25 C 172.535 1250.5 176.929 1287.66 168.624 1302.13 C 165.793 1307.06 122.533 1307.84 114.459 1308.06 C 102.736 1308.97 80.172 1312.69 80.0887 1294.39 C 79.9892 1272.48 73.5311 1239.54 82.5139 1220.06 C 84.6382 1215.46 128.744 1215.04 136.107 1214.45 z"/>
<path transform="translate(0,0)" fill="rgb(198,158,253)" d="M 285.933 1276.04 C 288.309 1275.91 293.653 1275.62 295.987 1276.49 C 308.529 1281.16 320.262 1314.93 327.745 1326.45 C 331.557 1332.32 335.16 1346.65 332.654 1351.33 C 326.683 1362.48 281.48 1383.71 270.803 1387.09 C 267.336 1387.2 263.908 1387.33 260.518 1386.46 C 254.16 1384.83 249.719 1376.71 246.685 1371.26 C 239.249 1357.91 220.262 1328.56 225.242 1313.55 C 228.53 1303.64 274.62 1281.41 285.933 1276.04 z"/>
<path transform="translate(0,0)" fill="rgb(198,158,253)" d="M 85.6459 983.064 C 90.0956 982.595 95.2698 982.148 99.2589 984.498 C 111.58 991.757 128.697 1030.15 131.664 1043.13 C 126.204 1058.61 115.896 1062.46 102.957 1071.42 C 94.7427 1077.1 86.2412 1082.78 77.1498 1086.95 C 70.3287 1087.41 64.6503 1087.65 59.9734 1082.02 C 51.9654 1071.76 31.8236 1039.04 32.894 1027.52 C 33.8386 1017.35 76.4882 989.302 85.6459 983.064 z"/>
<path transform="translate(0,0)" fill="rgb(149,104,246)" d="M 260.813 680.806 C 284.678 677.245 306.903 693.729 310.422 717.6 C 313.941 741.472 297.419 763.668 273.541 767.145 C 249.723 770.614 227.593 754.141 224.083 730.329 C 220.572 706.516 237.007 684.358 260.813 680.806 z"/>
</svg>